<svg width="96" height="96" viewBox="0 0 96 96" fill="none" xmlns="http://www.w3.org/2000/svg">
<rect width="96" height="96" rx="48" fill="#1C2331"/>
<path d="M63.009 19.668L55.506 18C54.006 21 51 22.5 48 22.5C45 22.5 41.997 21 40.494 18L32.991 19.668M63.009 19.668L64.302 19.953C67.326 20.625 70.044 22.419 71.142 25.314C73.125 30.564 74.757 38.952 74.988 50.997C75.018 52.398 75.03 53.1 74.589 53.55C74.148 54 73.437 54 72.015 54H65.898M63.009 19.668C63.009 26.598 63.657 38.613 65.898 54M32.991 19.668L31.695 19.953C28.674 20.625 25.956 22.419 24.861 25.314C22.875 30.564 21.246 38.952 21.012 50.997C20.982 52.398 20.97 53.1 21.411 53.55C21.852 54 22.563 54 23.985 54H30.102M32.991 19.668C32.991 26.598 32.343 38.613 30.102 54M65.898 54C66.33 56.964 67.182 61.854 67.884 65.79C68.415 68.76 68.682 70.245 67.674 72.093C66.669 73.944 65.652 74.37 63.618 75.222C60.231 76.644 55.134 78 48 78C40.869 78 35.769 76.644 32.382 75.222C30.348 74.37 29.331 73.944 28.326 72.093C27.318 70.245 27.585 68.76 28.116 65.79C28.818 61.854 29.67 56.964 30.102 54" stroke="#CDD6F4" stroke-width="3" stroke-linecap="round" stroke-linejoin="round"/>
<path d="M54.0931 20.9995C53.6521 31.4335 54.3571 53.2435 66.0001 56.9995M41.9101 20.9995C42.3481 31.4335 41.6401 53.2435 30.0001 56.9995" stroke="#CDD6F4" stroke-width="3" stroke-linecap="round" stroke-linejoin="round"/>
</svg>
