<svg width="96" height="96" viewBox="0 0 96 96" fill="none" xmlns="http://www.w3.org/2000/svg">
<rect width="96" height="96" rx="48" fill="#1C2331"/>
<path d="M60.0072 25.3344L54.0048 24C52.8048 26.4 50.4 27.6 48 27.6C45.6 27.6 43.1976 26.4 41.9952 24L35.9928 25.3344M60.0072 25.3344L61.0416 25.5624C63.4608 26.1 65.6352 27.5352 66.5136 29.8512C68.1 34.0512 69.4056 40.7616 69.5904 50.3976C69.6144 51.5184 69.624 52.08 69.2712 52.44C68.9184 52.8 68.3496 52.8 67.212 52.8H62.3184M60.0072 25.3344C60.0072 30.8784 60.5256 40.4904 62.3184 52.8M35.9928 25.3344L34.956 25.5624C32.5392 26.1 30.3648 27.5352 29.4888 29.8512C27.9 34.0512 26.5968 40.7616 26.4096 50.3976C26.3856 51.5184 26.376 52.08 26.7288 52.44C27.0816 52.8 27.6504 52.8 28.788 52.8H33.6816M35.9928 25.3344C35.9928 30.8784 35.4744 40.4904 33.6816 52.8M62.3184 52.8C62.664 55.1712 63.3456 59.0832 63.9072 62.232C64.332 64.608 64.5456 65.796 63.7392 67.2744C62.9352 68.7552 62.1216 69.096 60.4944 69.7776C57.7848 70.9152 53.7072 72 48 72C42.2952 72 38.2152 70.9152 35.5056 69.7776C33.8784 69.096 33.0648 68.7552 32.2608 67.2744C31.4544 65.796 31.668 64.608 32.0928 62.232C32.6544 59.0832 33.336 55.1712 33.6816 52.8" stroke="#CDD6F4" stroke-width="1.25" stroke-linecap="round" stroke-linejoin="round"/>
<path d="M52.8744 26.3997C52.5216 34.7469 53.0856 52.1949 62.4 55.1997M43.128 26.3997C43.4784 34.7469 42.912 52.1949 33.6 55.1997" stroke="#CDD6F4" stroke-width="1.25" stroke-linecap="round" stroke-linejoin="round"/>
</svg>
