<svg width="96" height="96" viewBox="0 0 96 96" fill="none" xmlns="http://www.w3.org/2000/svg">
<rect width="96" height="96" rx="48" fill="#1C2331"/>
<path d="M22.8032 58.7745L42.0096 47.9681C43.8319 46.9233 45.8994 46.3821 48 46.4001C50.1005 46.3821 52.168 46.9233 53.9904 47.9681L73.1968 58.7745C74.5591 59.5399 75.6293 60.7353 76.2399 62.1737C76.8504 63.612 76.967 65.2123 76.5712 66.7239C76.1755 68.2356 75.2898 69.5734 74.0527 70.5281C72.8156 71.4828 71.297 72.0004 69.7344 72.0001H26.2656C24.703 72.0004 23.1843 71.4828 21.9472 70.5281C20.7102 69.5734 19.8245 68.2356 19.4287 66.7239C19.033 65.2123 19.1495 63.612 19.7601 62.1737C20.3707 60.7353 21.4408 59.5399 22.8032 58.7745Z" stroke="#CDD6F4" stroke-width="1.25" stroke-linecap="round" stroke-linejoin="round"/>
<path d="M41.6 30.096C41.6 26.7296 44.464 24 48 24C51.536 24 54.4 26.7296 54.4 30.096C54.4 32.4 53.056 34.4032 51.0784 35.44C49.5136 36.2592 48 37.6224 48 39.392V46.4" stroke="#CDD6F4" stroke-width="1.25" stroke-linecap="round" stroke-linejoin="round"/>
</svg>
