<svg width="96" height="96" viewBox="0 0 96 96" fill="none" xmlns="http://www.w3.org/2000/svg">
<rect width="96" height="96" rx="48" fill="#1C2331"/>
<path d="M21.7548 59.2227L41.7603 47.9667C43.6585 46.8784 45.8121 46.3147 48 46.3335C50.1879 46.3147 52.3415 46.8784 54.2397 47.9667L74.2452 59.2227C75.6642 60.02 76.7789 61.2651 77.4149 62.7633C78.0509 64.2616 78.1723 65.9284 77.7601 67.5029C77.3478 69.0775 76.4253 70.471 75.1368 71.4654C73.8482 72.4598 72.2664 72.999 70.6387 72.9986H25.3613C23.7336 72.999 22.1518 72.4598 20.8633 71.4654C19.5747 70.471 18.6522 69.0775 18.2399 67.5029C17.8277 65.9284 17.9491 64.2616 18.5851 62.7633C19.2211 61.2651 20.3358 60.02 21.7548 59.2227Z" stroke="#CDD6F4" stroke-width="3" stroke-linecap="round" stroke-linejoin="round"/>
<path d="M41.3337 29.3511C41.3337 25.8446 44.3169 23.0015 48 23.0015C51.6832 23.0015 54.6663 25.8446 54.6663 29.3511C54.6663 31.751 53.2664 33.8375 51.2065 34.9175C49.5766 35.7708 48 37.1907 48 39.0339V46.3335" stroke="#CDD6F4" stroke-width="3" stroke-linecap="round" stroke-linejoin="round"/>
</svg>
