<svg width="96" height="96" viewBox="0 0 96 96" fill="none" xmlns="http://www.w3.org/2000/svg">
<rect width="96" height="96" rx="48" fill="#1C2331"/>
<path d="M50.4 72H35.016C31.308 72 28.3584 70.1952 25.7112 67.6728C20.2872 62.5056 29.1912 58.3776 32.5872 56.3568C37.2312 53.6075 42.6274 52.4017 48 52.9128M68.16 68.16L72 72M56.4 34.8C56.4 36.2183 56.1206 37.6227 55.5779 38.933C55.0351 40.2433 54.2396 41.4339 53.2367 42.4368C52.2338 43.4396 51.0433 44.2352 49.7329 44.7779C48.4226 45.3207 47.0182 45.6 45.6 45.6C44.1817 45.6 42.7773 45.3207 41.467 44.7779C40.1567 44.2352 38.9661 43.4396 37.9632 42.4368C36.9603 41.4339 36.1648 40.2433 35.6221 38.933C35.0793 37.6227 34.8 36.2183 34.8 34.8C34.8 31.9357 35.9378 29.1886 37.9632 27.1632C39.9886 25.1379 42.7356 24 45.6 24C48.4643 24 51.2113 25.1379 53.2367 27.1632C55.2621 29.1886 56.4 31.9357 56.4 34.8ZM70.08 61.44C70.08 59.1485 69.1697 56.9509 67.5494 55.3306C65.9291 53.7103 63.7314 52.8 61.44 52.8C59.1485 52.8 56.9509 53.7103 55.3306 55.3306C53.7103 56.9509 52.8 59.1485 52.8 61.44C52.8 63.7315 53.7103 65.9291 55.3306 67.5494C56.9509 69.1697 59.1485 70.08 61.44 70.08C63.7314 70.08 65.9291 69.1697 67.5494 67.5494C69.1697 65.9291 70.08 63.7315 70.08 61.44Z" stroke="#CDD6F4" stroke-width="1.25" stroke-linecap="round" stroke-linejoin="round"/>
</svg>
