<svg width="96" height="96" viewBox="0 0 96 96" fill="none" xmlns="http://www.w3.org/2000/svg">
<rect width="96" height="96" rx="48" fill="#1C2331"/>
<path d="M50.9999 78H31.7699C27.1349 78 23.4479 75.744 20.1389 72.591C13.3589 66.132 24.4889 60.972 28.7339 58.446C34.539 55.0094 41.2843 53.5021 47.9999 54.141M73.1999 73.2L77.9999 78M58.4999 31.5C58.4999 33.2728 58.1508 35.0283 57.4723 36.6662C56.7939 38.3041 55.7995 39.7923 54.5459 41.0459C53.2923 42.2995 51.8041 43.2939 50.1662 43.9724C48.5283 44.6508 46.7728 45 44.9999 45C43.2271 45 41.4716 44.6508 39.8337 43.9724C38.1958 43.2939 36.7076 42.2995 35.454 41.0459C34.2004 39.7923 33.206 38.3041 32.5276 36.6662C31.8491 35.0283 31.4999 33.2728 31.4999 31.5C31.4999 27.9196 32.9223 24.4858 35.454 21.9541C37.9857 19.4223 41.4195 18 44.9999 18C48.5804 18 52.0141 19.4223 54.5459 21.9541C57.0776 24.4858 58.4999 27.9196 58.4999 31.5ZM75.5999 64.8C75.5999 61.9357 74.4621 59.1886 72.4367 57.1632C70.4113 55.1379 67.6643 54 64.7999 54C61.9356 54 59.1886 55.1379 57.1632 57.1632C55.1378 59.1886 53.9999 61.9357 53.9999 64.8C53.9999 67.6643 55.1378 70.4114 57.1632 72.4368C59.1886 74.4621 61.9356 75.6 64.7999 75.6C67.6643 75.6 70.4113 74.4621 72.4367 72.4368C74.4621 70.4114 75.5999 67.6643 75.5999 64.8Z" stroke="#CDD6F4" stroke-width="3" stroke-linecap="round" stroke-linejoin="round"/>
</svg>
