<svg width="96" height="96" viewBox="0 0 96 96" fill="none" xmlns="http://www.w3.org/2000/svg">
<rect width="96" height="96" rx="48" fill="#1C2331"/>
<path d="M33.6 67.2V72M62.4 67.2V72M48 67.2V24M40.8 43.2V45.6M55.2 43.2V45.6M26.4 52.8V38.4C26.4 31.6128 26.4 28.2168 28.632 26.1096C30.864 24.0024 34.4592 24 41.6472 24H54.3528C61.5408 24 65.1336 24 67.368 26.1096C69.6 28.2168 69.6 31.6128 69.6 38.4V52.8C69.6 59.5872 69.6 62.9832 67.368 65.0904C65.136 67.1976 61.5408 67.2 54.3528 67.2H41.6472C34.4592 67.2 30.8664 67.2 28.632 65.0904C26.4 62.9832 26.4 59.5872 26.4 52.8Z" stroke="#CDD6F4" stroke-width="1.25" stroke-linecap="round" stroke-linejoin="round"/>
</svg>
