<svg width="96" height="96" viewBox="0 0 96 96" fill="none" xmlns="http://www.w3.org/2000/svg">
<rect width="96" height="96" rx="48" fill="#1C2331"/>
<path d="M30 72V78M66 72V78M48 72V18M39 42V45M57 42V45M21 54V36C21 27.516 21 23.271 23.79 20.637C26.58 18.003 31.074 18 40.059 18H55.941C64.926 18 69.417 18 72.21 20.637C75 23.271 75 27.516 75 36V54C75 62.484 75 66.729 72.21 69.363C69.42 71.997 64.926 72 55.941 72H40.059C31.074 72 26.583 72 23.79 69.363C21 66.729 21 62.484 21 54Z" stroke="#CDD6F4" stroke-width="3" stroke-linecap="round" stroke-linejoin="round"/>
</svg>
